<svg xmlns="http://www.w3.org/2000/svg" xmlns:xlink="http://www.w3.org/1999/xlink" viewBox="0 0 1932 1080">
  <defs>
    <style>
      .cls-1 {
        fill: #1a1616;
      }

      .cls-2 {
        fill: #161010;
      }

      .cls-3 {
        clip-path: url(#clip-path);
      }

      .cls-4 {
        fill: #858585;
      }

      .cls-5 {
        fill: #f5f5f5;
      }

      .cls-6 {
        fill: #8a8a8a;
      }

      .cls-7 {
        clip-path: url(#clip-path-2);
      }

      .cls-8 {
        clip-path: url(#clip-path-3);
      }

      .cls-10, .cls-9 {
        fill: #fff;
      }

      .cls-9 {
        font-size: 60px;
        font-family: Verdana-Bold, Verdana;
        font-weight: 700;
      }

      .cls-10 {
        font-size: 30px;
        font-family: Verdana;
      }

      .cls-11 {
        fill: #1cffff;
      }
    </style>
    <clipPath id="clip-path">
      <path id="Path_3" data-name="Path 3" d="M41.265,117.413l-3.591,2.068c-.312.2-.781.078-1.522-.312-2.771-1.639-5.542-3.239-8.313-4.839-3.122-1.8-6.283-3.591-9.406-5.425-.468-.273-.976-.507-1.834-.937l3.591-2.068c.859.468,1.366.663,1.834.937,3.122,1.8,6.283,3.591,9.406,5.425,2.771,1.6,5.542,3.2,8.313,4.839C40.485,117.491,40.953,117.569,41.265,117.413Z" transform="translate(-16.6 -105.9)"/>
    </clipPath>
    <clipPath id="clip-path-2">
      <path id="Path_7" data-name="Path 7" d="M40.91,34.468,44.5,32.4c-.585.351-.624,1.054-.312,2.3,1.639,6.752,3.2,13.5,4.761,20.255.078.39.117.742.273,1.522l-3.591,2.068c-.117-.742-.2-1.132-.273-1.522-1.561-6.752-3.122-13.5-4.761-20.255C40.285,35.522,40.324,34.82,40.91,34.468Z" transform="translate(-40.404 -32.4)"/>
    </clipPath>
    <clipPath id="clip-path-3">
      <path id="Path_10" data-name="Path 10" d="M90.276,124.368l-3.591,2.068a.525.525,0,0,0,.234-.273q3.22-9.25,6.322-18.616a2.229,2.229,0,0,0-.234-1.483c-2.225-3.239-4.527-6.44-6.908-9.8L89.691,94.2c2.381,3.356,4.683,6.557,6.908,9.8a2.264,2.264,0,0,1,.234,1.483q-3.1,9.367-6.322,18.616A.413.413,0,0,1,90.276,124.368Z" transform="translate(-86.1 -94.2)"/>
    </clipPath>
  </defs>
  <g id="Group_13" data-name="Group 13" transform="translate(10)">
    <rect id="Rectangle_1" data-name="Rectangle 1" class="cls-1" width="1920" height="1080"/>
    <rect id="Rectangle_2" data-name="Rectangle 2" class="cls-1" width="1920" height="1080" transform="translate(-10)"/>
    <path id="Path_1" data-name="Path 1" class="cls-2" d="M1534,0s218,156,96,354S848,618,692,838s-134,238-134,238H1922V0Z"/>
    <g id="Logo_1_" transform="translate(124.78 39.977)">
      <g id="Group_2" data-name="Group 2" transform="translate(6.463 41.344)">
        <g id="Group_1" data-name="Group 1" class="cls-3">
          <path id="Path_2" data-name="Path 2" class="cls-4" d="M16.7,107.868l3.591-2.068c.859.468,1.366.663,1.834.937,3.122,1.8,6.283,3.591,9.406,5.425,2.771,1.6,5.542,3.2,8.313,4.839.7.429,1.171.507,1.522.312l-3.591,2.068c-.312.2-.781.078-1.522-.312-2.771-1.639-5.542-3.239-8.313-4.839-3.122-1.8-6.283-3.591-9.406-5.425-.468-.234-.976-.468-1.834-.937" transform="translate(-16.661 -105.839)"/>
        </g>
      </g>
      <g id="Group_3" data-name="Group 3" transform="translate(-0.025 7.976)">
        <path id="Path_4" data-name="Path 4" class="cls-5" d="M4.473,20.4c2.186,9.093,4.293,17.836,6.44,26.695,6.205,3.591,12.372,7.1,18.694,10.772-.937,2.537-1.756,4.956-2.693,7.259-.117.312-.781.312-1.171.078-3.239-1.834-6.479-3.708-9.718-5.581-3.4-1.951-6.791-3.942-10.186-5.932a4.338,4.338,0,0,1-1.288-1.8C2.99,45.846,1.546,39.8.063,33.786a3.494,3.494,0,0,1,0-1.561c1.327-3.825,2.654-7.61,3.981-11.4C4.083,20.712,4.2,20.673,4.473,20.4Z" transform="translate(0.025 -20.4)"/>
      </g>
      <path id="Path_5" data-name="Path 5" class="cls-6" d="M40.224,52.566C33.9,48.9,27.735,45.385,21.53,41.756c-2.147-8.859-4.254-17.6-6.44-26.656L11.5,17.168C13.686,26.262,15.793,35,17.94,43.863c6.205,3.591,12.372,7.1,18.694,10.772-.937,2.537-1.756,4.956-2.693,7.259a.3.3,0,0,1-.156.156l3.591-2.068a.3.3,0,0,0,.156-.156c.7-1.756,1.327-3.551,1.99-5.386l.7-1.873Z" transform="translate(-7.027 -9.193)"/>
      <g id="Group_5" data-name="Group 5" transform="translate(15.753 12.659)">
        <g id="Group_4" data-name="Group 4" class="cls-7">
          <path id="Path_6" data-name="Path 6" class="cls-6" d="M40.91,34.468,44.5,32.4c-.585.351-.624,1.054-.312,2.3,1.639,6.752,3.2,13.5,4.761,20.255.078.39.117.742.273,1.522l-3.591,2.068c-.117-.742-.2-1.132-.273-1.522-1.561-6.752-3.122-13.5-4.761-20.255-.312-1.249-.273-1.951.312-2.3" transform="translate(-40.404 -32.4)"/>
        </g>
      </g>
      <g id="Group_7" data-name="Group 7" transform="translate(33.587 36.778)">
        <g id="Group_6" data-name="Group 6" class="cls-8">
          <path id="Path_8" data-name="Path 8" class="cls-4" d="M86.1,96.268,89.691,94.2c2.381,3.356,4.683,6.557,6.908,9.8a1.3,1.3,0,0,1,.2.468L93.2,106.533a1.3,1.3,0,0,0-.2-.468c-2.225-3.2-4.488-6.4-6.908-9.8" transform="translate(-86.1 -94.2)"/>
          <path id="Path_9" data-name="Path 9" class="cls-6" d="M94.218,122.568l3.591-2.068a1.969,1.969,0,0,1,.039,1.054q-3.1,9.367-6.322,18.616a.525.525,0,0,1-.234.273L87.7,142.511a.525.525,0,0,0,.234-.273q3.22-9.25,6.322-18.616a2.464,2.464,0,0,0-.039-1.054" transform="translate(-87.076 -110.236)"/>
        </g>
      </g>
      <g id="Group_8" data-name="Group 8" transform="translate(6.463 38.847)">
        <path id="Path_11" data-name="Path 11" class="cls-5" d="M43.724,99.5c2.381,3.356,4.683,6.557,6.908,9.8a2.264,2.264,0,0,1,.234,1.483q-3.1,9.367-6.322,18.616c-.117.39-.859.546-1.288.273-2.537-1.4-5.035-2.849-7.571-4.332-2.225-1.288-4.449-2.576-6.713-3.9a4.062,4.062,0,0,1-1.171-1.015c-3.63-5.308-7.259-10.615-11.2-16.431.859.468,1.366.663,1.834.937,3.122,1.8,6.283,3.591,9.406,5.425,2.771,1.6,5.542,3.2,8.313,4.839,1.249.7,1.717.507,2.068-.546,1.6-4.605,3.278-9.132,4.917-13.7C43.334,100.554,43.49,100.085,43.724,99.5Z" transform="translate(-16.6 -99.5)"/>
      </g>
      <path id="Path_12" data-name="Path 12" class="cls-6" d="M98.99,87.816v-.273a.235.235,0,0,0-.039-.156.143.143,0,0,0-.039-.117c0-.039-.039-.117-.039-.156v-.039c0-.039,0-.039-.039-.078,0-.039-.039-.078-.039-.117s-.039-.117-.039-.156a.136.136,0,0,0-.039-.078c-.039-.039-.039-.117-.078-.156,0-.039-.039-.039-.039-.078-.039-.078-.078-.117-.117-.2Q90.345,74.625,82.169,63.15a4.135,4.135,0,0,0-.9-.937c-.078-.039-.117-.078-.156-.039-2.342.507-4.605,1.093-7.025,1.717L70.5,65.96c2.42-.585,4.722-1.21,7.025-1.717a.235.235,0,0,1,.156.039,3.454,3.454,0,0,1,.9.937c5.464,7.688,10.889,15.338,16.313,23.065a.853.853,0,0,1,.117.2c0,.039.039.039.039.078.039.039.039.078.078.156a.136.136,0,0,0,.039.078c0,.039.039.117.039.156s.039.078.039.117.039.078.039.156c0,.039.039.117.039.156a.143.143,0,0,0,.039.117.235.235,0,0,0,.039.156V90a.352.352,0,0,1-.039.2c-1.444,4.449-2.927,8.82-4.449,13.191a1.332,1.332,0,0,1-.507.742l3.591-2.068a1.332,1.332,0,0,0,.507-.742c1.522-4.371,3.005-8.742,4.449-13.191a1.691,1.691,0,0,0,.039-.2Z" transform="translate(-43.001 -37.885)"/>
      <g id="Group_9" data-name="Group 9" transform="translate(27.46 26.381)">
        <path id="Path_13" data-name="Path 13" class="cls-5" d="M77.659,67.614a3.454,3.454,0,0,1,.9.937c5.464,7.688,10.889,15.338,16.313,23.065A3.076,3.076,0,0,1,95.3,93.45c-1.444,4.449-2.927,8.82-4.449,13.191a1.294,1.294,0,0,1-.663.82c-3.63.976-7.259,1.873-10.889,2.81-.078-.117-.156-.273-.234-.39C81.015,104.1,82.928,98.289,85,92.63c.468-1.327.351-2.3-.937-4.059-4.527-6.244-8.937-12.606-13.66-19.28,2.42-.585,4.722-1.21,7.025-1.717A.24.24,0,0,1,77.659,67.614Z" transform="translate(-70.4 -67.559)"/>
      </g>
      <g id="Group_10" data-name="Group 10" transform="translate(5.418 2.131)">
        <path id="Path_14" data-name="Path 14" class="cls-5" d="M34.91,10.019c1.951,1.132,3.942,2.264,6.01,3.473A10.48,10.48,0,0,1,39.671,14c-4.8,1.327-9.562,2.654-14.4,3.864-1.054.273-1.21.937-.82,2.5,1.639,6.752,3.2,13.5,4.761,20.255.078.39.117.742.273,1.522-1.366-.781-2.693-1.561-4.02-2.3-1.444-.859-2.888-1.678-4.293-2.537a3.7,3.7,0,0,1-1.054-1.561c-2.107-8.625-4.137-17.25-6.166-25.836-.117-.468.117-1.132.429-1.21,3.942-1.132,7.884-2.186,11.864-3.239a1.44,1.44,0,0,1,1.015.2C29.8,7.053,32.334,8.5,34.91,10.019Z" transform="translate(-13.921 -5.423)"/>
      </g>
      <path id="Path_15" data-name="Path 15" class="cls-4" d="M39.158,4.619C36.543,3.136,34.006,1.692,31.509.248a1.44,1.44,0,0,0-1.015-.2c-3.981,1.015-7.923,2.068-11.864,3.2-.039,0-.039,0-.078.039L15,5.361c.039,0,.039-.039.078-.039C19.02,4.19,22.962,3.136,26.942,2.083a1.44,1.44,0,0,1,1.015.2c2.537,1.444,5.074,2.888,7.649,4.41,1.951,1.132,3.942,2.264,6.01,3.473l3.591-2.068C43.1,6.922,41.109,5.751,39.158,4.619Z" transform="translate(-9.161)"/>
      <g id="Group_11" data-name="Group 11" transform="translate(17.224 12.269)">
        <path id="Path_16" data-name="Path 16" class="cls-5" d="M61.745,31.673a2.342,2.342,0,0,1,.742.624c3.9,5.425,7.805,10.928,11.669,16.392a5.212,5.212,0,0,1,.781,1.717c1.327,5.386,2.615,10.733,3.9,16.079a6.706,6.706,0,0,1,0,.9C73.1,59.3,67.521,51.382,61.784,43.3c-4.956,1.288-9.913,2.615-15.065,3.942-.9-3.747-1.756-7.259-2.537-10.811a.862.862,0,0,1,.585-.9C50.154,34.093,55.579,32.727,61,31.4A2.5,2.5,0,0,1,61.745,31.673Z" transform="translate(-44.172 -31.4)"/>
      </g>
      <path id="Path_17" data-name="Path 17" class="cls-6" d="M83.179,61.369c-1.288-5.347-2.576-10.733-3.9-16.079V45.25a.555.555,0,0,0-.078-.234c0-.078-.039-.117-.039-.2a1.9,1.9,0,0,1-.117-.273c-.039-.078-.039-.117-.078-.156a.978.978,0,0,0-.156-.273c-.039-.039-.039-.078-.078-.156a3.432,3.432,0,0,0-.234-.39c-3.864-5.5-7.727-10.967-11.669-16.392a2.342,2.342,0,0,0-.742-.624c-.273-.156-.546-.273-.7-.2-5.464,1.327-10.85,2.693-16.235,4.137a.3.3,0,0,0-.156.078L45.4,32.645c.039-.039.117-.039.156-.078,5.386-1.444,10.811-2.81,16.235-4.137a1.129,1.129,0,0,1,.7.2,2.342,2.342,0,0,1,.742.624c3.9,5.425,7.805,10.928,11.669,16.392.078.117.156.273.234.39.039.039.039.078.078.156s.117.2.156.273c.039.039.039.117.078.156a1.9,1.9,0,0,1,.117.273.352.352,0,0,1,.039.2.724.724,0,0,1,.078.273c1.327,5.386,2.615,10.733,3.9,16.079a6.707,6.707,0,0,1,0,.9l3.591-2.068A6.625,6.625,0,0,0,83.179,61.369Z" transform="translate(-27.697 -16.044)"/>
    </g>
    <text id="Fancy_Title_Here" data-name="Fancy Title Here" class="cls-9" transform="translate(296 378)"><tspan x="0" y="0">Fancy Title Here</tspan></text>
    <text id="Nice_headline_logo_here_for_people_to_know_what_you_do" data-name="Nice headline logo here for people
to know what you do" class="cls-10" transform="translate(296 421)"><tspan x="0" y="0">Nice headline logo here for people</tspan><tspan x="0" y="36">to know what you do</tspan></text>
    <g id="Group_12" data-name="Group 12" transform="translate(-8)">
      <rect id="Rectangle_3" data-name="Rectangle 3" class="cls-11" width="374" height="78" rx="12" transform="translate(304 554)"/>
      <text id="Click_Me" data-name="Click Me" class="cls-10" transform="translate(429 605)"><tspan x="0" y="0">Click Me</tspan></text>
    </g>
  </g>
</svg>
